# xmcd
#
# Track frame offsets: 
#        150
#        26565
#        52065
#        76642
#        97622
#        121557
#        146377
#        170490
#        195727
#        198052
#        223457
#        245235
#        271552
#
# Disc length: 3985 seconds
#
# Revision: 0
# Processed by: cddbd v1.5.2PL0 Copyright (c) Steve Scherf et al.
# Submitted via: ExactAudioCopy v0.99pb4
#
DISCID=a80f8f0d
DTITLE=Mash - Black Beauty
DYEAR=1996
DGENRE=R&B
TTITLE0=Bird Of Beauty
TTITLE1=Tears - Master Mix
TTITLE2=It's Gonna Be Ok
TTITLE3=Under My Covers
TTITLE4=Follow You - Master Mix
TTITLE5=You And I - Master Mix
TTITLE6=Day By Day
TTITLE7=Fly '96
TTITLE8=Interlude - Bird Of Beauty
TTITLE9=Tears - Boomin' Mix
TTITLE10=Follow You - Gospel Rap Mix
TTITLE11=You And I - Half Cut Mix
TTITLE12=You And I - Moose Mix
EXTD=
EXTT0=
EXTT1=
EXTT2=
EXTT3=
EXTT4=
EXTT5=
EXTT6=
EXTT7=
EXTT8=
EXTT9=
EXTT10=
EXTT11=
EXTT12=
PLAYORDER=
